HIERARCHY
ROOT wineglass3
{
	OFFSET 0.000000 0.000000 0.000000
	CHANNELS 6 Xposition Yposition Zposition Yrotation Xrotation Zrotation
	End Site
	{
		OFFSET 0.000000 0.000000 0.000000
	}
}
MOTION
Frames: 175
Frame Time: 0.008333334
1.979420 3.765044 3.173546 23.430820 1.171261 -0.265289 
1.978281 3.765053 3.173935 23.447310 1.174694 -0.222229 
1.977723 3.765087 3.173864 23.449050 1.137284 -0.144592 
1.977879 3.765072 3.173250 23.491120 1.122243 -0.131348 
1.978548 3.765074 3.173847 23.425990 1.159913 -0.206024 
1.980077 3.764894 3.174237 23.420110 1.238900 -0.313385 
1.981992 3.764874 3.174136 23.473280 1.244848 -0.401947 
1.982201 3.764863 3.174741 23.495330 1.261595 -0.386627 
1.980902 3.765072 3.175935 23.500870 1.309397 -0.315399 
1.979982 3.764986 3.174889 23.465260 1.229836 -0.339142 
1.979759 3.764852 3.174884 23.473400 1.222793 -0.278015 
1.980221 3.765130 3.176083 23.506210 1.281573 -0.269959 
1.980989 3.765079 3.175865 23.488080 1.268353 -0.345154 
1.981287 3.765156 3.175432 23.466060 1.245074 -0.342407 
1.980562 3.765107 3.176020 23.517100 1.277848 -0.262085 
1.980315 3.765064 3.175933 23.521080 1.272396 -0.273926 
1.980654 3.764912 3.175689 23.513300 1.255780 -0.283142 
1.981506 3.765018 3.175576 23.462990 1.263349 -0.312225 
1.981815 3.765126 3.175691 23.465280 1.281571 -0.335724 
1.981277 3.765094 3.175632 23.465690 1.272966 -0.346161 
1.981296 3.765280 3.175797 23.470500 1.276332 -0.294708 
1.981916 3.765401 3.176306 23.456580 1.297326 -0.305145 
1.982722 3.765330 3.176855 23.465470 1.297345 -0.326019 
1.982279 3.765316 3.177089 23.499730 1.282650 -0.309448 
1.981655 3.765233 3.177046 23.493670 1.285785 -0.254944 
1.981589 3.765192 3.176977 23.502930 1.267425 -0.237152 
1.982089 3.765272 3.177176 23.515130 1.284552 -0.285248 
1.982613 3.765265 3.176964 23.493600 1.306391 -0.335541 
1.982271 3.765582 3.176752 23.503980 1.363077 -0.346527 
1.981901 3.765298 3.176558 23.487020 1.284634 -0.296997 
1.982024 3.765304 3.176246 23.463240 1.293799 -0.300171 
1.982265 3.765357 3.176263 23.446300 1.307383 -0.331421 
1.982346 3.765224 3.176192 23.464820 1.319831 -0.383942 
1.981940 3.765180 3.176059 23.446170 1.299891 -0.373474 
1.982107 3.765096 3.175837 23.472200 1.322536 -0.365631 
1.982224 3.765087 3.175831 23.462830 1.331835 -0.362152 
1.982478 3.765115 3.175612 23.485200 1.322818 -0.365845 
1.982267 3.765044 3.175672 23.482300 1.318480 -0.392059 
1.981888 3.765079 3.175716 23.454420 1.295085 -0.367188 
1.982162 3.764973 3.175593 23.474290 1.311973 -0.394409 
1.982399 3.765138 3.175524 23.502320 1.322420 -0.350128 
1.982380 3.764990 3.175733 23.480530 1.315641 -0.403137 
1.982048 3.765120 3.175702 23.464830 1.316588 -0.359802 
1.982201 3.765075 3.175692 23.499520 1.336638 -0.341919 
1.982227 3.764989 3.175881 23.477450 1.334514 -0.393311 
1.982220 3.764977 3.175849 23.478240 1.331866 -0.394775 
1.981938 3.764991 3.176019 23.461880 1.324167 -0.394348 
1.981871 3.765218 3.176066 23.458540 1.323736 -0.330994 
1.981995 3.765197 3.176141 23.449740 1.322441 -0.353394 
1.981969 3.765110 3.176481 23.448360 1.333231 -0.365418 
1.982103 3.765246 3.176549 23.483310 1.323132 -0.367676 
1.981949 3.765193 3.176670 23.504090 1.304943 -0.371063 
1.982264 3.765145 3.177017 23.492660 1.306491 -0.351959 
1.982481 3.765130 3.177104 23.489130 1.321177 -0.344482 
1.982597 3.765068 3.177370 23.517340 1.317816 -0.316834 
1.982115 3.765195 3.177544 23.478350 1.371706 -0.328827 
1.982444 3.765057 3.178015 23.459610 1.323099 -0.225189 
1.982470 3.765257 3.178349 23.485560 1.308778 -0.210449 
1.982557 3.765175 3.178765 23.475620 1.292791 -0.198364 
1.982582 3.765164 3.178842 23.458100 1.307546 -0.230591 
1.982569 3.765072 3.178856 23.456380 1.328159 -0.212647 
1.982712 3.765074 3.179107 23.463650 1.314723 -0.223938 
1.982746 3.765141 3.179310 23.467860 1.322141 -0.214233 
1.982675 3.765113 3.179257 23.460230 1.325709 -0.204346 
1.982471 3.765143 3.179580 23.456820 1.343654 -0.239105 
1.982036 3.765025 3.180200 23.438630 1.325092 -0.170715 
1.981029 3.764915 3.181028 23.432410 1.335763 -0.148987 
1.979919 3.764944 3.181641 23.446340 1.371558 -0.174011 
1.979284 3.765167 3.182516 23.489670 1.341232 -0.159302 
1.979129 3.765422 3.183118 23.500990 1.351187 -0.168060 
1.979849 3.765399 3.183382 23.464990 1.314719 -0.162323 
1.980923 3.765349 3.183354 23.477830 1.312816 -0.185394 
1.982772 3.765405 3.183076 23.483020 1.323835 -0.241913 
1.984413 3.765561 3.182966 23.483500 1.344290 -0.270020 
1.984404 3.765514 3.183691 23.472790 1.361513 -0.287293 
1.983215 3.765453 3.184122 23.495300 1.372007 -0.255859 
1.982215 3.765276 3.182715 23.517520 1.312061 -0.241577 
1.981254 3.765111 3.181062 23.488660 1.292738 -0.189331 
1.980915 3.765097 3.181402 23.469580 1.309226 -0.137268 
1.980937 3.765121 3.182554 23.444790 1.345311 -0.177551 
1.981770 3.765157 3.182006 23.456370 1.318211 -0.203308 
1.982508 3.765163 3.182027 23.459890 1.323798 -0.203888 
1.982113 3.765314 3.183383 23.475950 1.311724 -0.257538 
1.981715 3.765332 3.183427 23.492390 1.318619 -0.226624 
1.981678 3.765297 3.183122 23.493010 1.286492 -0.242310 
1.981589 3.765282 3.183775 23.478940 1.321296 -0.237854 
1.981131 3.765151 3.184080 23.467940 1.361622 -0.276825 
1.980900 3.765259 3.183661 23.475320 1.324913 -0.252075 
1.980538 3.765274 3.183984 23.446860 1.321999 -0.262970 
1.980315 3.765251 3.184181 23.459340 1.353665 -0.242432 
1.980262 3.765114 3.183757 23.429740 1.348370 -0.256592 
1.979980 3.765239 3.183742 23.420730 1.369072 -0.258453 
1.979742 3.765217 3.183377 23.449170 1.362570 -0.242920 
1.979983 3.764981 3.182854 23.437680 1.331068 -0.234222 
1.980135 3.765038 3.182850 23.467850 1.342621 -0.206696 
1.980220 3.764980 3.182577 23.436310 1.349316 -0.230499 
1.980048 3.765031 3.182306 23.453290 1.324389 -0.228973 
1.980169 3.765044 3.181948 23.437250 1.350585 -0.227448 
1.980196 3.765059 3.182145 23.437010 1.362243 -0.237518 
1.980232 3.764923 3.181850 23.438070 1.365017 -0.182709 
1.980008 3.764968 3.182260 23.452590 1.338184 -0.200501 
1.980018 3.765023 3.182588 23.439010 1.333445 -0.226013 
1.980178 3.765016 3.182675 23.427850 1.339487 -0.233795 
1.980262 3.764876 3.183128 23.432180 1.367963 -0.260864 
1.980164 3.764986 3.183403 23.434200 1.337155 -0.233124 
1.980078 3.765094 3.183635 23.429080 1.375683 -0.262360 
1.980210 3.765081 3.183980 23.433940 1.341182 -0.274109 
1.980259 3.765092 3.184325 23.432440 1.346418 -0.274414 
1.980183 3.765165 3.184523 23.425730 1.334542 -0.273834 
1.980129 3.765246 3.184719 23.428850 1.338338 -0.266907 
1.980263 3.765182 3.184974 23.422330 1.343518 -0.283814 
1.980396 3.765230 3.185055 23.433470 1.377247 -0.293274 
1.980422 3.765004 3.185229 23.412860 1.373380 -0.326019 
1.980415 3.765061 3.185401 23.411340 1.377147 -0.310059 
1.980506 3.765173 3.185601 23.419140 1.353318 -0.300568 
1.980507 3.765104 3.185808 23.415670 1.380300 -0.301727 
1.980510 3.765182 3.186116 23.403610 1.354526 -0.308868 
1.980515 3.765244 3.186206 23.403090 1.350006 -0.292938 
1.980487 3.765268 3.186330 23.407930 1.350870 -0.312408 
1.980503 3.765355 3.186687 23.410760 1.367076 -0.313599 
1.980521 3.765334 3.186786 23.412440 1.367023 -0.321503 
1.980575 3.765353 3.186929 23.406640 1.360234 -0.297882 
1.980637 3.765378 3.187023 23.405100 1.360856 -0.295685 
1.980673 3.765378 3.187028 23.401150 1.361212 -0.298523 
1.980631 3.765419 3.187113 23.406460 1.367564 -0.308655 
1.980649 3.765402 3.187114 23.396140 1.356181 -0.296906 
1.980704 3.765445 3.187129 23.395630 1.360394 -0.308075 
1.980771 3.765479 3.187129 23.403320 1.364628 -0.297607 
1.980915 3.765426 3.187162 23.390500 1.357247 -0.296173 
1.980943 3.765405 3.187050 23.403970 1.362027 -0.283600 
1.981040 3.765396 3.187134 23.399120 1.367018 -0.292664 
1.981117 3.765403 3.187147 23.397530 1.361946 -0.297485 
1.981199 3.765380 3.187116 23.393010 1.362780 -0.295288 
1.981167 3.765405 3.187010 23.396840 1.357549 -0.282196 
1.981140 3.765452 3.187084 23.391940 1.351413 -0.289673 
1.981142 3.765402 3.186971 23.384430 1.345064 -0.289398 
1.981192 3.765361 3.187000 23.411100 1.321228 -0.241699 
1.981152 3.765316 3.186808 23.397290 1.349625 -0.275696 
1.981225 3.765220 3.186872 23.404980 1.343082 -0.266571 
1.981094 3.765395 3.186711 23.374020 1.308745 -0.309815 
1.981166 3.765440 3.186576 23.390690 1.293614 -0.314545 
1.981413 3.765331 3.186400 23.427830 1.342672 -0.268677 
1.981469 3.765217 3.186191 23.424250 1.317826 -0.267914 
1.981416 3.765259 3.186000 23.429550 1.323802 -0.271484 
1.981332 3.765481 3.185845 23.398960 1.273837 -0.328796 
1.981334 3.765428 3.185647 23.403530 1.271741 -0.332520 
1.981231 3.765455 3.185506 23.397440 1.310199 -0.338562 
1.981326 3.765400 3.185304 23.417190 1.313975 -0.339966 
1.981233 3.765365 3.185162 23.402650 1.282805 -0.345856 
1.981247 3.765407 3.185045 23.417410 1.309227 -0.330811 
1.981234 3.765265 3.185039 23.401940 1.298607 -0.338593 
1.981203 3.765313 3.184981 23.394600 1.287403 -0.346008 
1.981082 3.765501 3.184949 23.404530 1.301818 -0.334229 
1.980977 3.765411 3.184850 23.409140 1.295190 -0.329529 
1.980871 3.765321 3.184752 23.413740 1.288562 -0.324799 
1.980789 3.765427 3.184664 23.427750 1.311036 -0.307770 
1.980724 3.765487 3.184520 23.445410 1.312938 -0.300476 
1.980606 3.765347 3.184383 23.436470 1.292092 -0.289764 
1.980456 3.765290 3.184152 23.464150 1.307269 -0.285370 
1.980382 3.765396 3.183809 23.451660 1.292433 -0.264679 
1.980268 3.765327 3.183490 23.438080 1.295760 -0.262177 
1.979993 3.765418 3.183055 23.462490 1.300142 -0.229004 
1.979663 3.765415 3.182853 23.518970 1.304383 -0.212402 
1.979810 3.765418 3.182750 23.489970 1.274191 -0.220764 
1.979742 3.765341 3.182685 23.483890 1.297706 -0.244141 
1.979625 3.765728 3.182609 23.471630 1.271013 -0.217529 
1.979517 3.765563 3.182985 23.480990 1.260245 -0.205627 
1.979263 3.765658 3.183442 23.493700 1.241648 -0.194214 
1.979233 3.765674 3.183882 23.435020 1.228574 -0.237244 
1.979141 3.765694 3.184199 23.441890 1.268540 -0.221405 
1.978935 3.765699 3.184694 23.420410 1.279436 -0.204895 
1.978880 3.765814 3.185231 23.458160 1.280990 -0.203919 
1.978849 3.765740 3.185423 23.453570 1.318681 -0.229279 
1.978547 3.765711 3.185592 23.482280 1.300571 -0.215179 
1.978605 3.765914 3.185537 23.507950 1.282071 -0.189575 
